<?xml version="1.0" encoding="UTF-8"?>
<svg preserveAspectRatio="xMidYMid slice" xmlns="http://www.w3.org/2000/svg" width="34px" height="9px" viewBox="0 0 74 20" fill="none">
  <path d="M10.1703 18.7009C9.05769 18.8963 7.92547 18.9548 6.75424 19.1109L3.18185 8.64778V19.5599C2.0692 19.677 1.05414 19.8332 0 19.9893V0H2.96725L7.02749 11.3418V0H10.1703V18.7009ZM16.3194 7.32032C17.5298 7.32032 19.3843 7.26174 20.4969 7.26174V10.385C19.1109 10.385 17.4907 10.385 16.3194 10.4436V15.0896C18.1545 14.9725 19.9894 14.8162 21.8438 14.7576V17.7637L13.196 18.4471V0H21.8438V3.12334H16.3194V7.32032ZM33.4587 3.12341H30.2183V17.4907C29.1641 17.4907 28.11 17.4907 27.0951 17.5297V3.12341H23.8546V0H33.4588L33.4587 3.12341ZM38.5341 7.10565H42.8092V10.2289H38.5341V17.3151H35.4691V0H44.1952V3.12334H38.5341V7.10565ZM49.2705 14.5821C51.047 14.621 52.8428 14.7579 54.5802 14.8553V17.9396C51.7888 17.7638 48.9973 17.5884 46.1473 17.5297V0H49.2705V14.5821ZM57.2155 18.1544C58.2111 18.213 59.2652 18.2716 60.2803 18.3886V0H57.2155V18.1544ZM73.9645 0L70.0017 9.50668L73.9645 19.9893C72.7931 19.8332 71.6219 19.6184 70.4506 19.4232L68.2058 13.6451L65.9221 18.9548C64.7897 18.7595 63.6965 18.7009 62.5645 18.5447L66.5857 9.38945L62.9548 0H66.3122L68.3619 5.25112L70.5483 0H73.9645Z" fill="#315844"></path>
</svg>
