<?xml version="1.0" encoding="UTF-8"?>
<svg xmlns="http://www.w3.org/2000/svg" width="70" height="52" viewBox="0 0 70 52" fill="none">
  <path d="M28.9453 0V3.39844C23.0078 4.64844 18.0469 7.5 14.0625 11.9531C10.0781 16.3281 8.08594 21.875 8.08594 28.5938C10.5078 26.1719 13.3984 24.9609 16.7578 24.9609C20.5078 24.9609 23.5156 26.1328 25.7812 28.4766C28.0469 30.8203 29.1797 33.9844 29.1797 37.9688C29.1797 41.5625 27.8125 44.6875 25.0781 47.3438C22.3438 49.9219 19.0234 51.2109 15.1172 51.2109C10.5078 51.2109 6.83594 49.6484 4.10156 46.5234C1.36719 43.3203 0 39.1016 0 33.8672C0 24.5703 2.57812 16.8359 7.73438 10.6641C12.8906 4.49219 19.9609 0.9375 28.9453 0ZM69.6094 0V3.39844C63.6719 4.64844 58.6719 7.5 54.6094 11.9531C50.625 16.3281 48.6328 21.875 48.6328 28.5938C51.0547 26.1719 53.9453 24.9609 57.3047 24.9609C61.0547 24.9609 64.0625 26.1328 66.3281 28.4766C68.6719 30.8203 69.8438 33.9844 69.8438 37.9688C69.8438 41.5625 68.4766 44.6875 65.7422 47.3438C63.0078 49.9219 59.6484 51.2109 55.6641 51.2109C51.0547 51.2109 47.3828 49.6484 44.6484 46.5234C41.9141 43.3203 40.5469 39.1016 40.5469 33.8672C40.5469 24.5703 43.125 16.8359 48.2812 10.6641C53.5156 4.49219 60.625 0.9375 69.6094 0Z" fill="#315844"></path>
</svg>
